<svg xmlns="http://www.w3.org/2000/svg" viewBox="0 0 210.83 199.35"><path d="M116 7.72C122.22 4 128.9.25 136.18 0c21.23-.7 24 31.6 6.44 39.4-9 4-20.58 3.85-28.87-1.78-5.26-3.57-7.87-8-8.27-12.54-.6-6.47 3.35-13.1 10.52-17.37zm74.25 63.6A88.34 88.34 0 0 0 153 50.83c-13.6-3.47-28.63-4-41.48-9.53-12.4-5.3-24.2-13.46-38.2-13.2-40.88.77-63.13 46.76-71 81.2-4.8 21.22-2.46 42.82 9.17 59.27a59.79 59.79 0 0 0 20.81 18.19c13.64 7.35 32.37 9.48 46.44 1.9 11.93-6.44 18.73-20.27 32.75-23.16 17.3-3.57 35.1 2.8 52.45-1.2a75.31 75.31 0 0 0 17.84-6.51c10-5.22 18.66-12.86 23.7-22.9 12.07-23.97 2.3-47.27-15.27-63.57zM160.8 39c.6 5.2 6.76 8.16 11.53 6.66 8.43-2.66 8.55-15.56-1.12-16.12-5.28-.33-11.08 3.7-10.4 9.46zM98.54 190.28c1 7.72 10.64 11.35 17.08 7.56 15.62-9.18-11.52-31.7-16.8-11.7a10.68 10.68 0 0 0-.28 4.13z"/></svg>